<svg width="700" height="437" viewBox="0 0 700 437" fill="none" xmlns="http://www.w3.org/2000/svg">
<path d="M596.654 68C589.222 74.1319 579.881 77.8787 569.544 77.8787C559.208 77.8787 549.778 74.1272 542.346 68C519.225 78.2449 502.908 101.204 502 128H637C636.092 101.2 619.775 78.2449 596.654 68Z" fill="#2A2A2A"/>
<path d="M518.279 356C510.9 361.897 501.701 365.618 491.498 365.618C481.294 365.618 472.096 361.897 464.716 356C441.395 366.251 425 389.479 425 416.516C425 425.226 426.641 430.853 430.008 433.754C435.564 438.566 447.591 437.024 461.527 435.208C470.548 434.029 480.747 432.665 491.498 432.665C502.249 432.665 512.452 434.025 521.468 435.208C535.404 437.024 547.431 438.654 552.987 433.754C556.359 430.853 558 425.226 558 416.516C558 389.479 541.6 366.251 518.279 356Z" fill="#2A2A2A"/>
<path d="M93.2824 356C85.9029 361.897 76.7042 365.618 66.5 365.618C56.2959 365.618 47.0972 361.897 39.7176 356C16.3959 366.251 0 389.479 0 416.516C0 425.226 1.64146 430.853 5.00855 433.754C10.5642 438.566 22.5922 437.024 36.5282 435.208C45.5492 434.029 55.7487 432.665 66.5 432.665C77.2513 432.665 87.4508 434.025 96.4718 435.208C110.408 437.024 122.436 438.654 127.991 433.754C131.363 430.853 133 425.226 133 416.516C133 389.479 116.604 366.251 93.2824 356Z" fill="#2A2A2A"/>
<path d="M376.581 356C369.257 361.897 360.127 365.618 350 365.618C339.873 365.618 330.743 361.897 323.419 356C300.273 366.251 284 389.479 284 416.516C284 425.226 285.629 430.853 288.971 433.754C294.485 438.566 306.422 437.024 320.254 435.208C329.207 434.029 339.33 432.665 350 432.665C360.67 432.665 370.793 434.025 379.746 435.208C393.582 437.024 405.515 438.654 411.029 433.754C414.376 430.853 416 425.226 416 416.516C416 389.479 399.727 366.251 376.581 356Z" fill="#2A2A2A"/>
<path d="M235.284 356C227.905 361.897 218.706 365.618 208.502 365.618C198.299 365.618 189.1 361.897 181.721 356C158.4 366.251 142 389.479 142 416.516C142 425.226 143.641 430.853 147.013 433.754C152.569 438.566 164.596 437.024 178.532 435.208C187.552 434.029 197.751 432.665 208.502 432.665C219.253 432.665 229.452 434.025 238.473 435.208C252.409 437.024 264.436 438.654 269.992 433.754C273.363 430.853 275 425.226 275 416.516C275 389.479 258.605 366.251 235.284 356Z" fill="#2A2A2A"/>
<path d="M660.282 356C652.903 361.897 643.704 365.618 633.5 365.618C623.296 365.618 614.097 361.897 606.718 356C583.396 366.251 567 389.479 567 416.516C567 425.226 568.641 430.853 572.009 433.754C577.564 438.566 589.592 437.024 603.528 435.208C612.549 434.029 622.749 432.665 633.5 432.665C644.251 432.665 654.451 434.025 663.472 435.208C677.412 437.024 689.436 438.654 694.991 433.754C698.363 430.853 700 425.226 700 416.516C700 389.479 683.604 366.251 660.282 356Z" fill="#2A2A2A"/>
<path d="M66.5 356C85.0015 356 100 341.002 100 322.5C100 303.998 85.0015 289 66.5 289C47.9985 289 33 303.998 33 322.5C33 341.002 47.9985 356 66.5 356Z" fill="#2A2A2A"/>
<path d="M175 322.5C175 340.97 190.03 356 208.5 356C226.97 356 242 340.97 242 322.5C242 304.03 226.97 289 208.5 289C190.03 289 175 304.03 175 322.5Z" fill="#2A2A2A"/>
<path d="M350 356C368.778 356 384 341.002 384 322.5C384 303.998 368.778 289 350 289C331.222 289 316 303.998 316 322.5C316 341.002 331.222 356 350 356Z" fill="#2A2A2A"/>
<path d="M458 322.5C458 340.97 473.03 356 491.5 356C509.97 356 525 340.97 525 322.5C525 304.03 509.97 289 491.5 289C473.03 289 458 304.03 458 322.5Z" fill="#2A2A2A"/>
<path d="M633.5 356C652.002 356 667 341.002 667 322.5C667 303.998 652.002 289 633.5 289C614.998 289 600 303.998 600 322.5C600 341.002 614.998 356 633.5 356Z" fill="#2A2A2A"/>
<path d="M569.544 69C588.503 69 604 53.5923 604 34.5445C604 15.4966 588.503 0 569.544 0C550.585 0 535 15.4966 535 34.5445C535 53.5923 550.497 69 569.544 69Z" fill="#2A2A2A"/>
<path d="M645.357 137H494.643C487.108 137 481 143.083 481 150.586V198.414C481 205.917 487.108 212 494.643 212H645.357C652.892 212 659 205.917 659 198.414V150.586C659 143.083 652.892 137 645.357 137Z" fill="#2A2A2A"/>
<path d="M370.249 10H74.7508C62.1859 10 52 20.1882 52 32.756V198.244C52 210.812 62.1859 221 74.7508 221H370.249C382.814 221 393 210.812 393 198.244V32.756C393 20.1882 382.814 10 370.249 10Z" fill="#2A2A2A"/>
<rect width="125" height="125" transform="translate(159 53)" fill="#2A2A2A"/>
<path d="M204.833 65.5H182.611C176.475 65.5 171.5 70.4746 171.5 76.6111V98.8333M204.833 165.5H182.611C176.475 165.5 171.5 160.525 171.5 154.389V132.167M238.167 65.5H260.389C266.525 65.5 271.5 70.4746 271.5 76.6111V98.8333M271.5 132.167V154.389C271.5 160.525 266.525 165.5 260.389 165.5H238.167M199.625 100.736V94.6418M243.375 100.736V94.6418M204.066 134.251C211.192 139.772 227.171 139.772 237.128 134.251M218.375 119.017L219.669 117.755C220.842 116.612 221.5 115.062 221.5 113.446V97.6887" stroke="white" stroke-width="7" stroke-linecap="round"/>
</svg>
