<svg width="374" height="100" viewBox="0 0 374 100" fill="none" xmlns="http://www.w3.org/2000/svg">
<rect width="374" height="100" rx="15" fill="white"/>
<path d="M108.832 23.2727V48H104.316L93.5582 32.4368H93.3771V48H88.1491V23.2727H92.7372L103.411 38.8239H103.628V23.2727H108.832ZM121.434 48.3622C119.558 48.3622 117.936 47.9638 116.568 47.1669C115.208 46.362 114.157 45.2431 113.417 43.8104C112.676 42.3696 112.306 40.6993 112.306 38.7997C112.306 36.884 112.676 35.2098 113.417 33.777C114.157 32.3362 115.208 31.2173 116.568 30.4205C117.936 29.6155 119.558 29.2131 121.434 29.2131C123.309 29.2131 124.927 29.6155 126.287 30.4205C127.656 31.2173 128.71 32.3362 129.451 33.777C130.191 35.2098 130.562 36.884 130.562 38.7997C130.562 40.6993 130.191 42.3696 129.451 43.8104C128.71 45.2431 127.656 46.362 126.287 47.1669C124.927 47.9638 123.309 48.3622 121.434 48.3622ZM121.458 44.3778C122.311 44.3778 123.023 44.1364 123.595 43.6534C124.166 43.1624 124.597 42.4943 124.887 41.6491C125.185 40.804 125.334 39.8421 125.334 38.7635C125.334 37.6849 125.185 36.723 124.887 35.8778C124.597 35.0327 124.166 34.3646 123.595 33.8736C123.023 33.3826 122.311 33.1371 121.458 33.1371C120.597 33.1371 119.872 33.3826 119.285 33.8736C118.705 34.3646 118.266 35.0327 117.969 35.8778C117.679 36.723 117.534 37.6849 117.534 38.7635C117.534 39.8421 117.679 40.804 117.969 41.6491C118.266 42.4943 118.705 43.1624 119.285 43.6534C119.872 44.1364 120.597 44.3778 121.458 44.3778ZM150.637 48H141.872V23.2727H150.71C153.197 23.2727 155.338 23.7678 157.133 24.7578C158.928 25.7398 160.309 27.1525 161.275 28.9957C162.248 30.839 162.735 33.0445 162.735 35.6122C162.735 38.188 162.248 40.4015 161.275 42.2528C160.309 44.1042 158.92 45.5249 157.109 46.5149C155.306 47.505 153.149 48 150.637 48ZM147.1 43.5206H150.42C151.966 43.5206 153.266 43.2469 154.32 42.6996C155.382 42.1442 156.179 41.2869 156.711 40.1278C157.25 38.9607 157.52 37.4555 157.52 35.6122C157.52 33.785 157.25 32.2919 156.711 31.1328C156.179 29.9737 155.386 29.1205 154.332 28.5732C153.278 28.0258 151.978 27.7521 150.432 27.7521H147.1V43.5206ZM171.8 48.3501C170.617 48.3501 169.562 48.1449 168.637 47.7344C167.711 47.3158 166.978 46.7 166.439 45.8871C165.908 45.0661 165.642 44.0438 165.642 42.8203C165.642 41.79 165.831 40.9247 166.21 40.2244C166.588 39.5241 167.103 38.9607 167.755 38.5341C168.407 38.1075 169.148 37.7855 169.977 37.5682C170.814 37.3509 171.691 37.1979 172.609 37.1094C173.687 36.9967 174.557 36.892 175.217 36.7955C175.877 36.6908 176.356 36.5379 176.654 36.3366C176.951 36.1354 177.1 35.8376 177.1 35.4432V35.3707C177.1 34.6061 176.859 34.0144 176.376 33.5959C175.901 33.1773 175.225 32.968 174.347 32.968C173.422 32.968 172.685 33.1733 172.138 33.5838C171.591 33.9863 171.228 34.4934 171.051 35.1051L166.294 34.7188C166.536 33.5919 167.011 32.6179 167.719 31.7969C168.427 30.9678 169.341 30.3319 170.46 29.8892C171.587 29.4384 172.891 29.2131 174.372 29.2131C175.402 29.2131 176.388 29.3338 177.33 29.5753C178.28 29.8168 179.121 30.1911 179.853 30.6982C180.594 31.2053 181.177 31.8572 181.604 32.6541C182.03 33.4429 182.244 34.3887 182.244 35.4915V48H177.366V45.4283H177.221C176.923 46.0078 176.525 46.5189 176.026 46.9616C175.527 47.3963 174.927 47.7384 174.227 47.9879C173.526 48.2294 172.718 48.3501 171.8 48.3501ZM173.273 44.8004C174.03 44.8004 174.698 44.6515 175.277 44.3537C175.857 44.0478 176.311 43.6373 176.642 43.1222C176.972 42.607 177.137 42.0234 177.137 41.3714V39.4034C176.976 39.508 176.754 39.6046 176.472 39.6932C176.199 39.7737 175.889 39.8501 175.543 39.9226C175.197 39.987 174.851 40.0473 174.504 40.1037C174.158 40.152 173.844 40.1963 173.563 40.2365C172.959 40.325 172.432 40.4659 171.981 40.6591C171.53 40.8523 171.18 41.1139 170.931 41.4439C170.681 41.7659 170.556 42.1683 170.556 42.6513C170.556 43.3516 170.81 43.8868 171.317 44.2571C171.832 44.6193 172.484 44.8004 173.273 44.8004ZM194.686 48.3622C192.778 48.3622 191.136 47.9759 189.76 47.2031C188.391 46.4223 187.337 45.3196 186.596 43.8949C185.856 42.4621 185.486 40.7678 185.486 38.8118C185.486 36.9041 185.856 35.2299 186.596 33.7891C187.337 32.3482 188.379 31.2254 189.724 30.4205C191.076 29.6155 192.662 29.2131 194.481 29.2131C195.704 29.2131 196.843 29.4103 197.898 29.8047C198.96 30.1911 199.886 30.7746 200.675 31.5554C201.471 32.3362 202.091 33.3182 202.534 34.5014C202.977 35.6766 203.198 37.053 203.198 38.6307V40.0433H187.538V36.8558H198.356C198.356 36.1153 198.195 35.4593 197.873 34.8878C197.551 34.3163 197.105 33.8696 196.533 33.5476C195.97 33.2176 195.314 33.0526 194.565 33.0526C193.784 33.0526 193.092 33.2337 192.488 33.5959C191.893 33.95 191.426 34.429 191.088 35.0327C190.75 35.6283 190.577 36.2924 190.569 37.0249V40.0554C190.569 40.973 190.738 41.7659 191.076 42.4339C191.422 43.102 191.909 43.6172 192.537 43.9794C193.165 44.3416 193.909 44.5227 194.77 44.5227C195.342 44.5227 195.865 44.4422 196.34 44.2812C196.815 44.1203 197.221 43.8788 197.559 43.5568C197.898 43.2348 198.155 42.8404 198.332 42.3736L203.089 42.6875C202.848 43.8305 202.353 44.8286 201.604 45.6818C200.864 46.527 199.906 47.187 198.731 47.6619C197.564 48.1288 196.215 48.3622 194.686 48.3622ZM236.338 31.9297H231.049C230.953 31.2455 230.756 30.6378 230.458 30.1065C230.16 29.5672 229.778 29.1084 229.311 28.7301C228.844 28.3518 228.305 28.062 227.693 27.8608C227.089 27.6596 226.433 27.5589 225.725 27.5589C224.445 27.5589 223.33 27.8769 222.38 28.5128C221.431 29.1406 220.694 30.0582 220.171 31.2656C219.648 32.465 219.386 33.9219 219.386 35.6364C219.386 37.3991 219.648 38.8802 220.171 40.0795C220.702 41.2789 221.443 42.1844 222.392 42.7962C223.342 43.4079 224.441 43.7138 225.689 43.7138C226.389 43.7138 227.037 43.6212 227.632 43.4361C228.236 43.2509 228.771 42.9813 229.238 42.6271C229.705 42.2649 230.092 41.8262 230.397 41.3111C230.711 40.7959 230.929 40.2083 231.049 39.5483L236.338 39.5724C236.201 40.7074 235.859 41.8021 235.311 42.8565C234.772 43.9029 234.044 44.8407 233.126 45.6697C232.217 46.4908 231.13 47.1428 229.866 47.6257C228.61 48.1006 227.19 48.3381 225.604 48.3381C223.399 48.3381 221.426 47.839 219.688 46.8409C217.957 45.8428 216.589 44.398 215.583 42.5064C214.585 40.6148 214.086 38.3248 214.086 35.6364C214.086 32.9399 214.593 30.6458 215.607 28.7543C216.621 26.8627 217.998 25.4219 219.736 24.4318C221.475 23.4337 223.431 22.9347 225.604 22.9347C227.037 22.9347 228.365 23.1359 229.588 23.5384C230.82 23.9408 231.911 24.5284 232.86 25.3011C233.81 26.0658 234.583 27.0036 235.179 28.1143C235.782 29.2251 236.169 30.4969 236.338 31.9297ZM245.134 37.2784V48H239.99V23.2727H244.989V32.7266H245.206C245.625 31.6319 246.301 30.7746 247.234 30.1548C248.168 29.527 249.339 29.2131 250.748 29.2131C252.036 29.2131 253.159 29.4948 254.116 30.0582C255.082 30.6136 255.831 31.4145 256.362 32.4609C256.902 33.4993 257.167 34.7429 257.159 36.1918V48H252.016V37.1094C252.024 35.9664 251.734 35.0769 251.146 34.4411C250.567 33.8052 249.754 33.4872 248.707 33.4872C248.007 33.4872 247.387 33.6361 246.848 33.9339C246.317 34.2318 245.898 34.6664 245.592 35.2379C245.295 35.8014 245.142 36.4815 245.134 37.2784ZM273.1 40.1037V29.4545H278.243V48H273.305V44.6314H273.112C272.693 45.718 271.997 46.5914 271.023 47.2514C270.057 47.9115 268.878 48.2415 267.485 48.2415C266.246 48.2415 265.155 47.9598 264.213 47.3963C263.271 46.8329 262.535 46.032 262.004 44.9936C261.481 43.9553 261.215 42.7116 261.207 41.2628V29.4545H266.35V40.3452C266.358 41.4399 266.652 42.3052 267.232 42.9411C267.811 43.5769 268.588 43.8949 269.562 43.8949C270.182 43.8949 270.761 43.754 271.301 43.4723C271.84 43.1825 272.275 42.7559 272.605 42.1925C272.943 41.629 273.108 40.9328 273.1 40.1037ZM287.501 23.2727V48H282.357V23.2727H287.501Z" fill="#0A0A0A"/>
<path d="M88.598 81V66.4545H97.6179V68.3438H90.7926V72.7756H96.9716V74.6577H90.7926V81H88.598ZM103.941 81.2202C102.918 81.2202 102.025 80.9858 101.263 80.517C100.501 80.0483 99.909 79.3925 99.4876 78.5497C99.0662 77.7069 98.8555 76.7221 98.8555 75.5952C98.8555 74.4635 99.0662 73.474 99.4876 72.6264C99.909 71.7789 100.501 71.1207 101.263 70.652C102.025 70.1832 102.918 69.9489 103.941 69.9489C104.963 69.9489 105.856 70.1832 106.618 70.652C107.381 71.1207 107.972 71.7789 108.394 72.6264C108.815 73.474 109.026 74.4635 109.026 75.5952C109.026 76.7221 108.815 77.7069 108.394 78.5497C107.972 79.3925 107.381 80.0483 106.618 80.517C105.856 80.9858 104.963 81.2202 103.941 81.2202ZM103.948 79.4375C104.611 79.4375 105.16 79.2623 105.596 78.9119C106.031 78.5616 106.353 78.0952 106.561 77.5128C106.775 76.9304 106.881 76.2888 106.881 75.5881C106.881 74.892 106.775 74.2528 106.561 73.6705C106.353 73.0833 106.031 72.6122 105.596 72.2571C105.16 71.902 104.611 71.7244 103.948 71.7244C103.28 71.7244 102.726 71.902 102.286 72.2571C101.85 72.6122 101.526 73.0833 101.313 73.6705C101.105 74.2528 101 74.892 101 75.5881C101 76.2888 101.105 76.9304 101.313 77.5128C101.526 78.0952 101.85 78.5616 102.286 78.9119C102.726 79.2623 103.28 79.4375 103.948 79.4375ZM111.396 81V70.0909H113.449V71.8239H113.562C113.761 71.2367 114.112 70.7751 114.614 70.4389C115.12 70.098 115.693 69.9276 116.332 69.9276C116.465 69.9276 116.621 69.9323 116.801 69.9418C116.986 69.9512 117.13 69.9631 117.234 69.9773V72.0085C117.149 71.9848 116.998 71.9588 116.78 71.9304C116.562 71.8973 116.344 71.8807 116.126 71.8807C115.625 71.8807 115.177 71.9872 114.784 72.2003C114.396 72.4086 114.088 72.6998 113.861 73.0739C113.634 73.4432 113.52 73.8646 113.52 74.3381V81H111.396ZM119.243 81V66.4545H121.366V71.8594H121.494C121.617 71.6321 121.795 71.3693 122.027 71.071C122.259 70.7727 122.581 70.5123 122.993 70.2898C123.404 70.0625 123.949 69.9489 124.626 69.9489C125.507 69.9489 126.293 70.1714 126.984 70.6165C127.675 71.0616 128.217 71.7031 128.61 72.5412C129.008 73.3793 129.207 74.3878 129.207 75.5668C129.207 76.7457 129.011 77.7566 128.618 78.5994C128.225 79.4375 127.685 80.0838 126.998 80.5384C126.312 80.9882 125.528 81.2131 124.647 81.2131C123.984 81.2131 123.442 81.1018 123.021 80.8793C122.604 80.6567 122.278 80.3963 122.041 80.098C121.804 79.7997 121.622 79.5346 121.494 79.3026H121.316V81H119.243ZM121.324 75.5455C121.324 76.3125 121.435 76.9848 121.657 77.5625C121.88 78.1402 122.202 78.5923 122.623 78.919C123.045 79.241 123.561 79.402 124.172 79.402C124.806 79.402 125.336 79.2339 125.762 78.8977C126.189 78.5568 126.511 78.0952 126.728 77.5128C126.951 76.9304 127.062 76.2746 127.062 75.5455C127.062 74.8258 126.953 74.1795 126.735 73.6065C126.522 73.0336 126.2 72.5814 125.77 72.25C125.343 71.9186 124.811 71.7528 124.172 71.7528C123.556 71.7528 123.035 71.9115 122.609 72.2287C122.188 72.5459 121.868 72.9886 121.65 73.5568C121.432 74.125 121.324 74.7879 121.324 75.5455ZM131.592 81V70.0909H133.715V81H131.592ZM132.664 68.4077C132.295 68.4077 131.978 68.2846 131.712 68.0384C131.452 67.7874 131.322 67.4891 131.322 67.1435C131.322 66.7931 131.452 66.4948 131.712 66.2486C131.978 65.9976 132.295 65.8722 132.664 65.8722C133.033 65.8722 133.348 65.9976 133.609 66.2486C133.874 66.4948 134.006 66.7931 134.006 67.1435C134.006 67.4891 133.874 67.7874 133.609 68.0384C133.348 68.2846 133.033 68.4077 132.664 68.4077ZM140.656 81.2131C139.775 81.2131 138.989 80.9882 138.298 80.5384C137.611 80.0838 137.072 79.4375 136.679 78.5994C136.29 77.7566 136.096 76.7457 136.096 75.5668C136.096 74.3878 136.293 73.3793 136.686 72.5412C137.083 71.7031 137.628 71.0616 138.319 70.6165C139.011 70.1714 139.794 69.9489 140.67 69.9489C141.347 69.9489 141.892 70.0625 142.304 70.2898C142.72 70.5123 143.042 70.7727 143.27 71.071C143.502 71.3693 143.681 71.6321 143.809 71.8594H143.937V66.4545H146.061V81H143.987V79.3026H143.809C143.681 79.5346 143.497 79.7997 143.255 80.098C143.019 80.3963 142.692 80.6567 142.275 80.8793C141.859 81.1018 141.319 81.2131 140.656 81.2131ZM141.125 79.402C141.735 79.402 142.252 79.241 142.673 78.919C143.099 78.5923 143.421 78.1402 143.639 77.5625C143.861 76.9848 143.973 76.3125 143.973 75.5455C143.973 74.7879 143.864 74.125 143.646 73.5568C143.428 72.9886 143.109 72.5459 142.687 72.2287C142.266 71.9115 141.745 71.7528 141.125 71.7528C140.485 71.7528 139.953 71.9186 139.527 72.25C139.1 72.5814 138.779 73.0336 138.561 73.6065C138.348 74.1795 138.241 74.8258 138.241 75.5455C138.241 76.2746 138.35 76.9304 138.568 77.5128C138.786 78.0952 139.108 78.5568 139.534 78.8977C139.965 79.2339 140.495 79.402 141.125 79.402ZM153.175 81.2131C152.295 81.2131 151.509 80.9882 150.817 80.5384C150.131 80.0838 149.591 79.4375 149.198 78.5994C148.81 77.7566 148.616 76.7457 148.616 75.5668C148.616 74.3878 148.812 73.3793 149.205 72.5412C149.603 71.7031 150.147 71.0616 150.839 70.6165C151.53 70.1714 152.314 69.9489 153.19 69.9489C153.867 69.9489 154.411 70.0625 154.823 70.2898C155.24 70.5123 155.562 70.7727 155.789 71.071C156.021 71.3693 156.201 71.6321 156.329 71.8594H156.457V66.4545H158.58V81H156.506V79.3026H156.329C156.201 79.5346 156.016 79.7997 155.775 80.098C155.538 80.3963 155.211 80.6567 154.795 80.8793C154.378 81.1018 153.838 81.2131 153.175 81.2131ZM153.644 79.402C154.255 79.402 154.771 79.241 155.192 78.919C155.619 78.5923 155.941 78.1402 156.158 77.5625C156.381 76.9848 156.492 76.3125 156.492 75.5455C156.492 74.7879 156.383 74.125 156.165 73.5568C155.948 72.9886 155.628 72.5459 155.207 72.2287C154.785 71.9115 154.264 71.7528 153.644 71.7528C153.005 71.7528 152.472 71.9186 152.046 72.25C151.62 72.5814 151.298 73.0336 151.08 73.6065C150.867 74.1795 150.761 74.8258 150.761 75.5455C150.761 76.2746 150.87 76.9304 151.087 77.5128C151.305 78.0952 151.627 78.5568 152.053 78.8977C152.484 79.2339 153.014 79.402 153.644 79.402ZM166.313 81.2202C165.238 81.2202 164.312 80.9905 163.536 80.5312C162.764 80.0672 162.167 79.4162 161.746 78.5781C161.329 77.7353 161.121 76.7481 161.121 75.6165C161.121 74.4991 161.329 73.5142 161.746 72.6619C162.167 71.8097 162.755 71.1444 163.507 70.6662C164.265 70.188 165.15 69.9489 166.164 69.9489C166.779 69.9489 167.376 70.0507 167.953 70.2543C168.531 70.4579 169.05 70.7775 169.509 71.2131C169.968 71.6487 170.33 72.2145 170.596 72.9105C170.861 73.6018 170.993 74.4422 170.993 75.4318V76.1847H162.321V74.5938H168.912C168.912 74.035 168.799 73.5402 168.571 73.1094C168.344 72.6738 168.025 72.3305 167.613 72.0795C167.205 71.8286 166.727 71.7031 166.178 71.7031C165.581 71.7031 165.06 71.8499 164.615 72.1435C164.175 72.4323 163.834 72.8111 163.593 73.2798C163.356 73.7438 163.238 74.2481 163.238 74.7926V76.0355C163.238 76.7647 163.365 77.3849 163.621 77.8963C163.882 78.4077 164.244 78.7983 164.708 79.0682C165.172 79.3333 165.714 79.4659 166.334 79.4659C166.737 79.4659 167.104 79.4091 167.435 79.2955C167.766 79.1771 168.053 79.0019 168.294 78.7699C168.536 78.5379 168.721 78.2514 168.848 77.9105L170.858 78.2727C170.697 78.8646 170.408 79.383 169.992 79.8281C169.58 80.2685 169.061 80.6117 168.436 80.858C167.816 81.0994 167.108 81.2202 166.313 81.2202ZM175.473 74.5227V81H173.349V70.0909H175.388V71.8665H175.523C175.774 71.2888 176.167 70.8248 176.702 70.4744C177.241 70.1241 177.921 69.9489 178.74 69.9489C179.483 69.9489 180.134 70.1051 180.693 70.4176C181.252 70.7254 181.685 71.1847 181.993 71.7955C182.301 72.4062 182.455 73.1615 182.455 74.0611V81H180.331V74.3168C180.331 73.526 180.125 72.9081 179.713 72.4631C179.301 72.0133 178.735 71.7884 178.016 71.7884C177.523 71.7884 177.085 71.8949 176.702 72.108C176.323 72.321 176.022 72.6335 175.8 73.0455C175.582 73.4527 175.473 73.9451 175.473 74.5227ZM190.766 81V66.4545H195.951C197.082 66.4545 198.02 66.6605 198.763 67.0724C199.507 67.4844 200.063 68.0478 200.432 68.7628C200.801 69.473 200.986 70.2732 200.986 71.1634C200.986 72.0582 200.799 72.8632 200.425 73.5781C200.056 74.2884 199.497 74.8518 198.749 75.2685C198.006 75.6804 197.07 75.8864 195.944 75.8864H192.378V74.0256H195.745C196.46 74.0256 197.04 73.9025 197.485 73.6562C197.93 73.4053 198.257 73.0644 198.465 72.6335C198.673 72.2027 198.777 71.7126 198.777 71.1634C198.777 70.6141 198.673 70.1264 198.465 69.7003C198.257 69.2741 197.927 68.9403 197.478 68.6989C197.033 68.4574 196.445 68.3366 195.716 68.3366H192.961V81H190.766ZM203.388 81V70.0909H205.441V71.8239H205.555C205.754 71.2367 206.104 70.7751 206.606 70.4389C207.112 70.098 207.685 69.9276 208.325 69.9276C208.457 69.9276 208.613 69.9323 208.793 69.9418C208.978 69.9512 209.122 69.9631 209.227 69.9773V72.0085C209.141 71.9848 208.99 71.9588 208.772 71.9304C208.554 71.8973 208.336 71.8807 208.119 71.8807C207.617 71.8807 207.169 71.9872 206.776 72.2003C206.388 72.4086 206.08 72.6998 205.853 73.0739C205.626 73.4432 205.512 73.8646 205.512 74.3381V81H203.388ZM215.269 81.2202C214.246 81.2202 213.354 80.9858 212.591 80.517C211.829 80.0483 211.237 79.3925 210.816 78.5497C210.394 77.7069 210.184 76.7221 210.184 75.5952C210.184 74.4635 210.394 73.474 210.816 72.6264C211.237 71.7789 211.829 71.1207 212.591 70.652C213.354 70.1832 214.246 69.9489 215.269 69.9489C216.292 69.9489 217.184 70.1832 217.946 70.652C218.709 71.1207 219.301 71.7789 219.722 72.6264C220.143 73.474 220.354 74.4635 220.354 75.5952C220.354 76.7221 220.143 77.7069 219.722 78.5497C219.301 79.3925 218.709 80.0483 217.946 80.517C217.184 80.9858 216.292 81.2202 215.269 81.2202ZM215.276 79.4375C215.939 79.4375 216.488 79.2623 216.924 78.9119C217.359 78.5616 217.681 78.0952 217.89 77.5128C218.103 76.9304 218.209 76.2888 218.209 75.5881C218.209 74.892 218.103 74.2528 217.89 73.6705C217.681 73.0833 217.359 72.6122 216.924 72.2571C216.488 71.902 215.939 71.7244 215.276 71.7244C214.608 71.7244 214.054 71.902 213.614 72.2571C213.178 72.6122 212.854 73.0833 212.641 73.6705C212.433 74.2528 212.328 74.892 212.328 75.5881C212.328 76.2888 212.433 76.9304 212.641 77.5128C212.854 78.0952 213.178 78.5616 213.614 78.9119C214.054 79.2623 214.608 79.4375 215.276 79.4375ZM223.971 70.0909L226.379 74.3381L228.808 70.0909H231.13L227.728 75.5455L231.158 81H228.836L226.379 76.9233L223.928 81H221.599L224.994 75.5455L221.641 70.0909H223.971ZM234.653 85.0909C234.335 85.0909 234.047 85.0649 233.786 85.0128C233.526 84.9654 233.332 84.9134 233.204 84.8565L233.715 83.1165C234.103 83.2206 234.449 83.2656 234.752 83.2514C235.055 83.2372 235.323 83.1236 235.555 82.9105C235.791 82.6974 236 82.3494 236.18 81.8665L236.442 81.142L232.451 70.0909H234.724L237.487 78.5568H237.6L240.363 70.0909H242.643L238.147 82.456C237.939 83.0241 237.674 83.5047 237.352 83.8977C237.03 84.2955 236.646 84.5938 236.201 84.7926C235.756 84.9915 235.24 85.0909 234.653 85.0909ZM251.331 81H249.001L254.235 66.4545H256.771L262.005 81H259.676L255.564 69.0966H255.45L251.331 81ZM251.721 75.304H259.278V77.1506H251.721V75.304ZM268.344 70.0909V71.7955H262.385V70.0909H268.344ZM263.983 67.4773H266.107V77.7969C266.107 78.2088 266.168 78.5189 266.292 78.7273C266.415 78.9309 266.573 79.0705 266.767 79.1463C266.966 79.2173 267.182 79.2528 267.414 79.2528C267.584 79.2528 267.733 79.241 267.861 79.2173C267.989 79.1937 268.088 79.1747 268.159 79.1605L268.543 80.9148C268.42 80.9621 268.245 81.0095 268.017 81.0568C267.79 81.1089 267.506 81.1373 267.165 81.142C266.606 81.1515 266.086 81.0521 265.603 80.8438C265.12 80.6354 264.729 80.3134 264.431 79.8778C264.132 79.4422 263.983 78.8954 263.983 78.2372V67.4773ZM275.786 70.0909V71.7955H269.827V70.0909H275.786ZM271.425 67.4773H273.548V77.7969C273.548 78.2088 273.61 78.5189 273.733 78.7273C273.856 78.9309 274.015 79.0705 274.209 79.1463C274.408 79.2173 274.623 79.2528 274.855 79.2528C275.026 79.2528 275.175 79.241 275.303 79.2173C275.43 79.1937 275.53 79.1747 275.601 79.1605L275.984 80.9148C275.861 80.9621 275.686 81.0095 275.459 81.0568C275.232 81.1089 274.947 81.1373 274.607 81.142C274.048 81.1515 273.527 81.0521 273.044 80.8438C272.561 80.6354 272.17 80.3134 271.872 79.8778C271.574 79.4422 271.425 78.8954 271.425 78.2372V67.4773ZM282.719 81.2202C281.644 81.2202 280.719 80.9905 279.942 80.5312C279.17 80.0672 278.574 79.4162 278.152 78.5781C277.736 77.7353 277.527 76.7481 277.527 75.6165C277.527 74.4991 277.736 73.5142 278.152 72.6619C278.574 71.8097 279.161 71.1444 279.914 70.6662C280.671 70.188 281.557 69.9489 282.57 69.9489C283.185 69.9489 283.782 70.0507 284.36 70.2543C284.937 70.4579 285.456 70.7775 285.915 71.2131C286.374 71.6487 286.737 72.2145 287.002 72.9105C287.267 73.6018 287.4 74.4422 287.4 75.4318V76.1847H278.728V74.5938H285.319C285.319 74.035 285.205 73.5402 284.978 73.1094C284.75 72.6738 284.431 72.3305 284.019 72.0795C283.612 71.8286 283.133 71.7031 282.584 71.7031C281.988 71.7031 281.467 71.8499 281.022 72.1435C280.581 72.4323 280.24 72.8111 279.999 73.2798C279.762 73.7438 279.644 74.2481 279.644 74.7926V76.0355C279.644 76.7647 279.772 77.3849 280.027 77.8963C280.288 78.4077 280.65 78.7983 281.114 79.0682C281.578 79.3333 282.12 79.4659 282.74 79.4659C283.143 79.4659 283.51 79.4091 283.841 79.2955C284.173 79.1771 284.459 79.0019 284.701 78.7699C284.942 78.5379 285.127 78.2514 285.255 77.9105L287.265 78.2727C287.104 78.8646 286.815 79.383 286.398 79.8281C285.986 80.2685 285.468 80.6117 284.843 80.858C284.222 81.0994 283.515 81.2202 282.719 81.2202ZM291.879 74.5227V81H289.756V70.0909H291.794V71.8665H291.929C292.18 71.2888 292.573 70.8248 293.108 70.4744C293.648 70.1241 294.327 69.9489 295.146 69.9489C295.89 69.9489 296.541 70.1051 297.099 70.4176C297.658 70.7254 298.091 71.1847 298.399 71.7955C298.707 72.4062 298.861 73.1615 298.861 74.0611V81H296.737V74.3168C296.737 73.526 296.531 72.9081 296.119 72.4631C295.707 72.0133 295.142 71.7884 294.422 71.7884C293.929 71.7884 293.491 71.8949 293.108 72.108C292.729 72.321 292.429 72.6335 292.206 73.0455C291.988 73.4527 291.879 73.9451 291.879 74.5227ZM305.793 81.2131C304.912 81.2131 304.126 80.9882 303.435 80.5384C302.748 80.0838 302.208 79.4375 301.815 78.5994C301.427 77.7566 301.233 76.7457 301.233 75.5668C301.233 74.3878 301.429 73.3793 301.822 72.5412C302.22 71.7031 302.765 71.0616 303.456 70.6165C304.147 70.1714 304.931 69.9489 305.807 69.9489C306.484 69.9489 307.028 70.0625 307.44 70.2898C307.857 70.5123 308.179 70.7727 308.406 71.071C308.638 71.3693 308.818 71.6321 308.946 71.8594H309.074V66.4545H311.197V81H309.124V79.3026H308.946C308.818 79.5346 308.634 79.7997 308.392 80.098C308.155 80.3963 307.829 80.6567 307.412 80.8793C306.995 81.1018 306.455 81.2131 305.793 81.2131ZM306.261 79.402C306.872 79.402 307.388 79.241 307.81 78.919C308.236 78.5923 308.558 78.1402 308.776 77.5625C308.998 76.9848 309.109 76.3125 309.109 75.5455C309.109 74.7879 309 74.125 308.783 73.5568C308.565 72.9886 308.245 72.5459 307.824 72.2287C307.402 71.9115 306.882 71.7528 306.261 71.7528C305.622 71.7528 305.089 71.9186 304.663 72.25C304.237 72.5814 303.915 73.0336 303.697 73.6065C303.484 74.1795 303.378 74.8258 303.378 75.5455C303.378 76.2746 303.487 76.9304 303.705 77.5128C303.922 78.0952 304.244 78.5568 304.67 78.8977C305.101 79.2339 305.632 79.402 306.261 79.402ZM317.403 81.2415C316.712 81.2415 316.087 81.1136 315.528 80.858C314.969 80.5975 314.527 80.2211 314.2 79.7287C313.878 79.2363 313.717 78.6326 313.717 77.9176C313.717 77.3021 313.835 76.7955 314.072 76.3977C314.309 76 314.628 75.6851 315.031 75.4531C315.433 75.2211 315.883 75.0459 316.38 74.9276C316.877 74.8092 317.384 74.7192 317.9 74.6577C318.554 74.5819 319.084 74.5204 319.491 74.473C319.898 74.4209 320.194 74.3381 320.379 74.2244C320.564 74.1108 320.656 73.9261 320.656 73.6705V73.6207C320.656 73.0005 320.481 72.5199 320.13 72.179C319.785 71.8381 319.269 71.6676 318.582 71.6676C317.867 71.6676 317.304 71.8262 316.892 72.1435C316.484 72.456 316.203 72.804 316.047 73.1875L314.051 72.733C314.288 72.0701 314.633 71.535 315.088 71.1278C315.547 70.7159 316.075 70.4176 316.672 70.233C317.268 70.0436 317.895 69.9489 318.554 69.9489C318.989 69.9489 319.451 70.0009 319.939 70.1051C320.431 70.2045 320.89 70.3892 321.316 70.6591C321.747 70.929 322.1 71.3149 322.375 71.8168C322.649 72.3139 322.787 72.9602 322.787 73.7557V81H320.713V79.5085H320.627C320.49 79.7831 320.284 80.053 320.01 80.3182C319.735 80.5833 319.382 80.8035 318.951 80.9787C318.52 81.1539 318.004 81.2415 317.403 81.2415ZM317.865 79.5369C318.452 79.5369 318.954 79.4209 319.37 79.1889C319.792 78.9569 320.111 78.6539 320.329 78.2798C320.552 77.901 320.663 77.4962 320.663 77.0653V75.6591C320.587 75.7348 320.44 75.8059 320.223 75.8722C320.01 75.9337 319.766 75.9882 319.491 76.0355C319.217 76.0781 318.949 76.1184 318.689 76.1562C318.428 76.1894 318.21 76.2178 318.035 76.2415C317.623 76.2936 317.247 76.3812 316.906 76.5043C316.57 76.6274 316.3 76.8049 316.096 77.0369C315.897 77.2642 315.798 77.5672 315.798 77.946C315.798 78.4716 315.992 78.8693 316.38 79.1392C316.769 79.4044 317.263 79.5369 317.865 79.5369ZM327.739 74.5227V81H325.615V70.0909H327.653V71.8665H327.788C328.039 71.2888 328.432 70.8248 328.967 70.4744C329.507 70.1241 330.187 69.9489 331.006 69.9489C331.749 69.9489 332.4 70.1051 332.959 70.4176C333.518 70.7254 333.951 71.1847 334.259 71.7955C334.566 72.4062 334.72 73.1615 334.72 74.0611V81H332.597V74.3168C332.597 73.526 332.391 72.9081 331.979 72.4631C331.567 72.0133 331.001 71.7884 330.281 71.7884C329.789 71.7884 329.351 71.8949 328.967 72.108C328.589 72.321 328.288 72.6335 328.065 73.0455C327.848 73.4527 327.739 73.9451 327.739 74.5227ZM342.163 81.2202C341.107 81.2202 340.198 80.9811 339.436 80.5028C338.679 80.0199 338.096 79.3546 337.689 78.5071C337.282 77.6596 337.078 76.6889 337.078 75.5952C337.078 74.4872 337.286 73.5095 337.703 72.6619C338.12 71.8097 338.707 71.1444 339.464 70.6662C340.222 70.188 341.115 69.9489 342.142 69.9489C342.971 69.9489 343.709 70.1027 344.358 70.4105C345.007 70.7135 345.53 71.1397 345.928 71.6889C346.33 72.2382 346.569 72.8797 346.645 73.6136H344.578C344.464 73.1023 344.204 72.6619 343.797 72.2926C343.394 71.9233 342.855 71.7386 342.178 71.7386C341.586 71.7386 341.067 71.8949 340.622 72.2074C340.182 72.5152 339.839 72.9555 339.592 73.5284C339.346 74.0966 339.223 74.7689 339.223 75.5455C339.223 76.3409 339.344 77.0275 339.585 77.6051C339.827 78.1828 340.168 78.6302 340.608 78.9474C341.053 79.2647 341.576 79.4233 342.178 79.4233C342.58 79.4233 342.945 79.3499 343.271 79.2031C343.603 79.0516 343.88 78.8362 344.102 78.5568C344.33 78.2775 344.488 77.9413 344.578 77.5483H346.645C346.569 78.2538 346.339 78.8835 345.956 79.4375C345.572 79.9915 345.059 80.4271 344.415 80.7443C343.776 81.0616 343.025 81.2202 342.163 81.2202ZM353.618 81.2202C352.543 81.2202 351.617 80.9905 350.841 80.5312C350.069 80.0672 349.472 79.4162 349.051 78.5781C348.634 77.7353 348.426 76.7481 348.426 75.6165C348.426 74.4991 348.634 73.5142 349.051 72.6619C349.472 71.8097 350.059 71.1444 350.812 70.6662C351.57 70.188 352.455 69.9489 353.468 69.9489C354.084 69.9489 354.681 70.0507 355.258 70.2543C355.836 70.4579 356.354 70.7775 356.814 71.2131C357.273 71.6487 357.635 72.2145 357.9 72.9105C358.165 73.6018 358.298 74.4422 358.298 75.4318V76.1847H349.626V74.5938H356.217C356.217 74.035 356.103 73.5402 355.876 73.1094C355.649 72.6738 355.329 72.3305 354.917 72.0795C354.51 71.8286 354.032 71.7031 353.483 71.7031C352.886 71.7031 352.365 71.8499 351.92 72.1435C351.48 72.4323 351.139 72.8111 350.897 73.2798C350.661 73.7438 350.542 74.2481 350.542 74.7926V76.0355C350.542 76.7647 350.67 77.3849 350.926 77.8963C351.186 78.4077 351.548 78.7983 352.012 79.0682C352.476 79.3333 353.019 79.4659 353.639 79.4659C354.041 79.4659 354.408 79.4091 354.74 79.2955C355.071 79.1771 355.358 79.0019 355.599 78.7699C355.841 78.5379 356.025 78.2514 356.153 77.9105L358.163 78.2727C358.002 78.8646 357.713 79.383 357.297 79.8281C356.885 80.2685 356.366 80.6117 355.741 80.858C355.121 81.0994 354.413 81.2202 353.618 81.2202Z" fill="#0A0A0A"/>
<path d="M32.3333 30H23.4444C20.9898 30 19 31.9898 19 34.4444V43.3333M32.3333 70H23.4444C20.9898 70 19 68.0101 19 65.5555V56.6667M45.6667 30H54.5555C57.0101 30 59 31.9898 59 34.4444V43.3333M59 56.6667V65.5555C59 68.0101 57.0101 70 54.5555 70H45.6667M30.25 44.0942V41.6567M47.75 44.0942V41.6567M32.0264 57.5004C34.8767 59.7089 41.2685 59.7089 45.2514 57.5004M37.75 51.4067L38.2678 50.9019C38.7366 50.4448 39 49.8248 39 49.1783V42.8755" stroke="black" stroke-width="3" stroke-linecap="round"/>
</svg>
